# xmcd CD database file
# Copyright (C) 1993-1998 Ti Kan
# 
# Track frame offsets:
#     182
#     13632
#     31232
#     45732
#     66920
#     97620
#     116282
#     130270
#     147670
#     162757
#     186595
#     217507
# 
# Disc length: 3309 seconds
# 
# Revision: 1
# Processed by: cddbd v1.4b41PL1 Copyright (c) Steve Scherf et al.
# Submitted via: DiscPlay 4.0.3
# 
DISCID=9c0ceb0c
DTITLE=Cream - Recorded live
DYEAR=1900
DGENRE=
TTITLE0=Strange brew
TTITLE1=N.S.U
TTITLE2=Born under a bad sign
TTITLE3=I'm so glad
TTITLE4=Sleepy time time
TTITLE5=Crossroads
TTITLE6=Tales of brave Ulysses
TTITLE7=Stepping out
TTITLE8=Outside woman blues
TTITLE9=Train time
TTITLE10=Toad
TTITLE11=We're goin' wrong
EXTD=
EXTT0=
EXTT1=
EXTT2=
EXTT3=
EXTT4=
EXTT5=
EXTT6=
EXTT7=
EXTT8=
EXTT9=
EXTT10=
EXTT11=
PLAYORDER=
